<?xml version="1.0" encoding="UTF-8"?>
<svg id="Layer_1" xmlns="http://www.w3.org/2000/svg" version="1.1" viewBox="0 0 692.7 605">
  <!-- Generator: Adobe Illustrator 29.4.0, SVG Export Plug-In . SVG Version: 2.1.0 Build 152)  -->
  <defs>
    <style>
      .st0 {
        fill: #2e2e41;
      }

      .st1 {
        fill: #a03c85;
      }

      .st2 {
        fill: #e8e9ea;
      }

      .st3 {
        fill: #fdb4b4;
      }

      .st4 {
        fill: #d6d7d8;
      }

      .st5 {
        fill: #3f3c57;
      }
    </style>
  </defs>
  <g>
    <polygon class="st3" points="225 71.4 232.5 105.7 216.5 153.3 190.8 102.1 194.4 72.4 225 71.4"/>
    <rect class="st1" x="189.5" y="103.9" width="44.4" height="53.6"/>
    <circle class="st3" cx="215.6" cy="58.4" r="30.3"/>
    <path class="st0" d="M189.2,80.9s-22.6-41.7-2.2-61.8c20.4-20.1,36.7-6.8,36.7-6.8l9.3-.4s1.9,7.3,5.1,3.4,8.8,10.5,8.8,10.5c10.5,19-26,23.2-26,23.2,0,0,2.6,8.4,0,10.2s-9.8,8.4-9.8,8.4l-6.4,4.8-3.8-5.8s-4-3.1-6-1.8.8,18.7.8,18.7l-6.4-2.5h0s0,0,0,0Z"/>
    <polygon class="st0" points="152.9 387.8 141.3 560.6 169.8 561.5 207.4 389.2 152.9 387.8"/>
    <polygon class="st0" points="221.9 386.8 210.3 559.6 238.8 560.6 276.5 388.3 221.9 386.8"/>
    <path class="st2" d="M145.9,427.3l15.2-188.2-23.2-98c-2-14.6,7.2-28.4,21.3-32.1l22.8-6,10.1-10.1,22.9,50.6,14.3-50.5,11.2,8.1,33.1,14.6v.3s-5.3,118.4-5.3,118.4l11.8,191.3h-.5s-133.5,1.7-133.5,1.7h0Z"/>
    <path class="st0" d="M237,558.6l8.2,24.6s32.3,4.4,32.8,14.4-43.8,4.2-69.8,5.5-4.4-26.8-4.4-26.8l2.8-16.2,30.4-1.5h0Z"/>
    <path class="st0" d="M169.6,556.8l8.2,24.6s32.3,4.4,32.8,14.4-43.8,4.2-69.8,5.5-4.4-26.8-4.4-26.8l2.8-16.2,30.4-1.5h0Z"/>
    <path id="uuid-2a99fb06-c611-4846-a9cf-67468c4aeefc-2450" class="st3" d="M129.4,327.3c-.3-4.9.5-9.7,2.4-14.2l-6.2-50.5,24.1-2.2,3.6,51.5c2.4,4.2,3.8,9,4,13.8.7,12.2-5,22.4-12.7,22.8s-14.6-9-15.3-21.2h0,0s0,0,0,0Z"/>
    <path id="uuid-a83e19fb-8297-4073-aac4-48fd1880d45d-2451" class="st3" d="M282.1,334.7c-.3-4.9.6-9.7,2.5-14.2l-5.6-50.6,24.1-2,3.1,51.5c2.4,4.2,3.7,9,3.9,13.9.6,12.2-5.2,22.3-13,22.7s-14.5-9.2-15.1-21.4h0,0Z"/>
    <path class="st2" d="M125.5,307.1v-.4c0,0-12.6-67.4-12.6-67.4l14.8-109.8c1.3-9.8,10.1-16.9,19.9-16.1,5.2.4,9.8,2.9,13,6.9,3.2,4,4.6,9.1,4,14.2l-11.2,82.3,7,88.1s-35,2.2-35,2.2Z"/>
    <path class="st2" d="M274.7,305.5l-25.3-168.6c-1.3-4.9-.5-10.1,2.2-14.5s7-7.4,12.1-8.4c9.7-2,19.3,3.9,21.8,13.5l24.3,176-35,2.1h0Z"/>
    <circle class="st4" cx="215.6" cy="155.7" r="3.1"/>
    <circle class="st4" cx="215.6" cy="179.2" r="3.1"/>
    <circle class="st4" cx="215.6" cy="202.7" r="3.1"/>
    <circle class="st4" cx="215.6" cy="226.2" r="3.1"/>
    <circle class="st4" cx="215.6" cy="249.6" r="3.1"/>
    <circle class="st4" cx="215.6" cy="273.1" r="3.1"/>
    <circle class="st4" cx="215.6" cy="296.6" r="3.1"/>
    <circle class="st4" cx="215.6" cy="320.1" r="3.1"/>
    <polygon class="st1" points="215.6 341.4 157 333.5 155.8 333.4 125.8 264.2 108 223.1 154.5 223.1 215.6 341.4"/>
  </g>
  <g>
    <polygon class="st0" points="450.9 79 488.2 58.5 488.2 116.9 445.1 116.9 450.9 79"/>
    <polygon class="st3" points="496.2 92 499.7 120.7 474.9 170.1 459.5 124.1 466.7 91 496.2 92"/>
    <rect class="st1" x="458.1" y="122.4" width="42.8" height="51.8"/>
    <polygon class="st0" points="536.3 396.5 547.5 563.4 520 564.3 483.6 397.9 536.3 396.5"/>
    <polygon class="st0" points="469.6 395.6 480.8 562.5 453.3 563.4 417 397 469.6 395.6"/>
    <path class="st2" d="M565.4,431.9h-.7s-175.2-.6-175.2-.6l.2-.6,45-178.5-11.3-90.1c-2.1-17.1,7-33.2,22.7-40.1l5.7-2.5,10.8-7.8,13.8,48.8,22.1-48.8,9.7,9.7,22,5.8c13.7,3.6,22.6,17,20.6,31h0c0,0-33.5,95.8-33.5,95.8l48,177.9Z"/>
    <path class="st0" d="M455.1,561.5l29.3,1.5,2.7,15.6s20.9,27.2-4.2,25.9-67.9,4.3-67.4-5.3,31.6-13.9,31.6-13.9l8-23.8h0Z"/>
    <path class="st0" d="M520.1,559.8l29.3,1.5,2.7,15.6s20.9,27.2-4.2,25.9-67.9,4.3-67.4-5.3,31.6-13.9,31.6-13.9l8-23.8h0Z"/>
    <path id="uuid-3bc2e7c3-8a4e-432b-b93d-ff096d796d3b-2452" class="st3" d="M547,336.4h0c-.7,11.7-7.3,20.9-14.8,20.5-7.5-.4-13-10.3-12.3-22,.2-4.7,1.5-9.3,3.9-13.3l3.5-49.7,23.3,2.1-5.9,48.8c1.9,4.3,2.6,9,2.3,13.7h0Z"/>
    <path id="uuid-a34cbb18-fa14-4c0b-8260-87fab6b8d9f9-2453" class="st3" d="M427.4,331.9h0c-.9,11.7-7.7,20.7-15.2,20.1s-12.7-10.6-11.8-22.3c.3-4.7,1.7-9.2,4.2-13.3l4.6-49.6,23.2,2.6-7,48.6c1.8,4.4,2.4,9.1,2,13.8h0s0,0,0,0Z"/>
    <path class="st2" d="M550.7,316.9l-33.8-2.2v-.5s6.8-84.5,6.8-84.5l-10.8-79.5c-.7-5,.7-9.8,3.8-13.7,3.1-3.9,7.6-6.3,12.6-6.7h0c9.5-.8,18,6.1,19.3,15.5l14.3,106h0c0,0-12.2,65.5-12.2,65.5Z"/>
    <path class="st2" d="M433,313.6l-33.9-2v-.5c0,0,23.4-169.4,23.4-169.4,2.5-9.3,11.7-15,21.1-13.1,4.9,1,9,3.9,11.7,8.2s3.4,9.3,2.1,14.1l-24.4,162.8Z"/>
    <circle class="st4" cx="475.7" cy="172.4" r="3"/>
    <circle class="st4" cx="475.7" cy="195.1" r="3"/>
    <circle class="st4" cx="475.7" cy="217.8" r="3"/>
    <circle class="st4" cx="475.7" cy="240.4" r="3"/>
    <circle class="st4" cx="475.7" cy="263.1" r="3"/>
    <circle class="st4" cx="475.7" cy="285.8" r="3"/>
    <circle class="st4" cx="475.7" cy="308.5" r="3"/>
    <circle class="st4" cx="475.7" cy="331.1" r="3"/>
    <circle class="st3" cx="480.3" cy="78.6" r="28"/>
    <path class="st0" d="M494.9,45.9c1.3,2.7-.8,6.1-3.6,7.3s-6,.7-9,.2-6.2-.9-9,.2c-3.6,1.5-5.7,5.3-7.4,8.8-3.3,6.6-6.6,13.1-9.9,19.7-1.6,3.2-3.3,6.6-3.3,10.2,0,6.6,5.2,11.9,8,17.8,3.4,7.3,3.1,16.1-.7,23.2-3.9,7-11.3,12-19.2,13-2.1.3-4.3.2-6.2-.7s-3.3-3-3-5.1c.7-4.1,6.9-5,8-9,.6-2.1-.5-4.3-1.9-5.9s-3.2-2.9-4.6-4.6c-3.1-3.9-3.3-9.8-.5-13.9,1.7-2.4,4.3-4.2,5.4-6.9.9-2.3.6-4.9.2-7.4-.4-3.2-.9-6.3-1.3-9.5-.5-3.7-1-7.5,0-11.1,2.4-8.2,11.7-12.1,17.1-18.7,2.5-3.1,4.2-6.8,6.8-9.8,4.4-5.1,11.2-7.8,17.9-7.3,6.6.6,12.9,4.5,16.3,10.2"/>
    <path class="st0" d="M490.5,46.4c-1.4.5-1.9,2.3-1.5,3.7.4,1.4,1.4,2.5,2.4,3.6,10.7,12.5,13.2,31.4,6.1,46.2-1.9,3.9-4.4,7.7-5.4,11.9-.7,3.1-.7,6.5-2.4,9.2-1.7,2.7-5.2,4.6-5.6,7.8-.2,2.1,1,4.1,2.7,5.3s3.8,1.8,5.8,2.2c5.3,1.2,10.7,1.8,16.1,1.9,1.8,0,3.6,0,5.2-.7s3-2.2,3-4c0-1.4-.8-2.7-.9-4-.3-4.1,5.3-6.3,6.3-10.3.7-2.6-.7-5.3-2.2-7.6-1.5-2.3-3.2-4.7-3.2-7.4,0-2.6,1.7-4.9,2.3-7.4.9-3.5-.2-7.2-1.3-10.6-.9-2.9-1.8-5.9-2.7-8.8-1-3.1-1.9-6.2-2.9-9.3-1.7-5.4-3.5-11-7.1-15.4-3.7-4.4-9.7-7.2-15.1-5.4"/>
  </g>
  <g>
    <path class="st5" d="M509.6,155l-1.9-.6c4-13.7-4.6-39.3-4.7-39.6l1.9-.6c.4,1.1,8.9,26.5,4.7,40.8Z"/>
    <circle class="st5" cx="508.6" cy="162.4" r="8.4"/>
    <path class="st5" d="M453.7,191.9h-5.1c-.6,0-1-.4-1-1s.4-1,1-1h5.1c1.4,0,2.7-.5,3.7-1.5,1-1,1.5-2.3,1.5-3.7v-31.2c0-6.8-5.6-12.3-12.4-12.3s-12.3,5.5-12.3,12.3v29.2c0,2.8,2.4,5.2,5.2,5.2h3.5c.6,0,1,.5,1,1,0,.5-.5,1-1,1h-3.5c-3.9,0-7.2-3.3-7.2-7.2v-29.2c0-7.9,6.3-14.3,14.2-14.3s14.3,6.4,14.3,14.3v31.2c0,1.9-.7,3.7-2,5.1-1.4,1.4-3.2,2.1-5.1,2.1Z"/>
    <circle class="st5" cx="443" cy="188.9" r="3.5"/>
    <circle class="st5" cx="448.7" cy="190.9" r="3.5"/>
  </g>
  <path class="st5" d="M244.1,140l-1.9-.6c4-13.7-4.5-39.7-4.6-40l2.4,1.8c.4,1.1,8.3,24.4,4.1,38.7Z"/>
  <path class="st5" d="M176.6,142.4l1.9-.6c-4-13.7,4.6-39.3,4.7-39.6l-2.1,1.4c-.4,1.1-8.8,24.4-4.6,38.8Z"/>
  <circle class="st5" cx="243.1" cy="147.4" r="8.4"/>
  <path class="st5" d="M185.5,193.8h-5.1c-.6,0-1-.4-1-1s.4-1,1-1h5.1c1.4,0,2.7-.5,3.7-1.5,1-1,1.5-2.3,1.5-3.7v-31.2c0-6.8-5.6-12.3-12.4-12.3s-12.3,5.5-12.3,12.3v29.2c0,2.8,2.4,5.2,5.2,5.2h3.5c.6,0,1,.5,1,1,0,.5-.5,1-1,1h-3.5c-3.9,0-7.2-3.3-7.2-7.2v-29.2c0-7.9,6.3-14.3,14.2-14.3s14.3,6.4,14.3,14.3v31.2c0,1.9-.7,3.7-2,5.1-1.4,1.4-3.2,2.1-5.1,2.1Z"/>
  <circle class="st5" cx="174.8" cy="190.8" r="3.5"/>
  <circle class="st5" cx="180.4" cy="192.8" r="3.5"/>
  <metadata>
    <sfw xmlns="http://ns.adobe.com/SaveForWeb/1.0/">
      <slices/>
      <sliceSourceBounds x="107.98" y="0" width="457.37" height="596.95" bottomLeftOrigin="true"/>
    </sfw>
  </metadata>
</svg>